<svg xmlns="http://www.w3.org/2000/svg" xmlns:xlink="http://www.w3.org/1999/xlink" width="500" zoomAndPan="magnify" viewBox="0 0 375 374.999991" height="500" preserveAspectRatio="xMidYMid meet" version="1.0"><defs><clipPath id="627b04b85a"><path d="M 95.425781 183.035156 L 99.925781 183.035156 L 99.925781 187.535156 L 95.425781 187.535156 Z M 95.425781 183.035156 " clip-rule="nonzero"/></clipPath></defs><path fill="#000000" d="M 187.257812 0 C 150.96875 0 134.011719 83.332031 130.441406 154.761719 C 119.734375 161.90625 109.027344 169.046875 99.210938 176.1875 C 51.316406 138.390625 35.847656 110.714844 40.308594 102.679688 C 42.988281 98.214844 58.75 93.15625 100.097656 105.0625 C 104.859375 106.550781 109.917969 103.871094 111.109375 99.109375 C 112.59375 94.347656 109.917969 89.285156 105.160156 88.09375 C 62.027344 75.59375 34.363281 77.382812 24.84375 93.75 C 9.375 120.832031 56.078125 164.582031 84.632812 187.5 C 40.609375 222.917969 12.351562 259.226562 24.84375 281.25 C 30.199219 290.476562 41.5 295.234375 57.859375 295.234375 C 70.652344 295.234375 86.421875 292.5625 104.863281 286.90625 C 109.621094 285.417969 112.300781 280.652344 110.8125 275.890625 C 109.324219 271.128906 104.5625 268.449219 99.800781 269.9375 C 58.453125 282.140625 42.691406 276.785156 40.011719 272.320312 C 37.632812 268.15625 40.3125 253.574219 66.785156 227.085938 C 90.878906 202.679688 126.574219 176.488281 167.027344 152.976562 C 207.484375 129.464844 248.234375 111.902344 281.253906 102.976562 C 317.546875 93.453125 331.226562 98.214844 333.605469 102.382812 C 338.070312 110.417969 322.605469 138.09375 274.710938 175.890625 C 262.21875 166.664062 249.132812 157.734375 235.746094 149.402344 C 231.582031 146.722656 225.925781 147.914062 223.546875 152.378906 C 220.867188 156.546875 222.058594 162.203125 226.519531 164.585938 C 306.835938 214.882812 341.046875 260.121094 333.910156 272.023438 C 328.554688 281.25 284.828125 280.953125 206.296875 242.558594 C 209.570312 240.773438 212.539062 238.984375 215.8125 237.199219 C 227.414062 230.355469 239.015625 223.214844 250.019531 216.070312 C 254.183594 213.390625 255.378906 207.738281 252.402344 203.574219 C 249.429688 199.40625 244.070312 198.214844 239.90625 201.1875 C 229.199219 208.332031 218.195312 215.179688 206.59375 221.726562 C 198.5625 226.191406 190.53125 230.65625 182.5 234.824219 C 178.039062 237.203125 176.546875 242.5625 178.628906 246.726562 C 179.226562 247.917969 180.121094 248.8125 181.011719 249.40625 C 181.308594 249.703125 181.609375 250 182.203125 250.296875 L 182.5 250.59375 C 219.980469 270.234375 256.863281 284.527344 285.714844 291.074219 C 297.316406 293.753906 307.433594 294.9375 316.0625 294.9375 C 332.421875 294.9375 343.429688 290.179688 348.78125 280.953125 C 362.464844 258.929688 333.3125 222.320312 289.882812 187.5 C 318.734375 164.285156 365.4375 120.832031 349.671875 93.75 C 330.632812 61.011719 239.316406 91.070312 158.703125 137.496094 C 155.429688 139.285156 152.453125 141.070312 149.179688 143.152344 C 154.832031 62.203125 174.765625 17.855469 187.257812 17.855469 C 192.3125 17.855469 204.808594 28.871094 214.925781 70.835938 C 216.113281 75.597656 220.871094 78.570312 225.632812 77.382812 C 230.390625 76.191406 233.363281 71.429688 232.171875 66.667969 C 221.761719 22.917969 205.996094 0 187.257812 0 Z M 138.769531 205.949219 C 133.710938 206.246094 130.148438 210.417969 130.148438 215.179688 C 131.933594 257.742188 137.878906 296.726562 146.804688 325.300781 C 157.214844 358.335938 170.898438 375 187.257812 375 C 205.996094 375 221.761719 352.082031 232.171875 308.332031 C 233.363281 303.570312 230.390625 298.808594 225.632812 297.617188 C 220.871094 296.429688 216.113281 299.402344 214.925781 304.164062 C 204.808594 346.128906 192.3125 357.144531 187.257812 357.144531 C 173.574219 357.144531 151.863281 306.25 147.996094 214.582031 C 147.699219 209.523438 143.527344 205.949219 138.769531 205.949219 Z M 138.769531 205.949219 " fill-opacity="1" fill-rule="nonzero"/><g clip-path="url(#627b04b85a)"><path fill="#000000" d="M 97.652344 184.398438 C 97.765625 184.859375 98.054688 185.148438 98.515625 185.261719 C 98.054688 185.378906 97.765625 185.667969 97.652344 186.128906 C 97.535156 185.667969 97.246094 185.378906 96.785156 185.261719 C 97.246094 185.148438 97.535156 184.859375 97.652344 184.398438 M 97.652344 183.035156 C 97.652344 183.539062 97.628906 183.925781 97.597656 184.226562 C 97.566406 184.484375 97.460938 184.707031 97.277344 184.890625 C 97.09375 185.074219 96.875 185.179688 96.617188 185.207031 C 96.316406 185.242188 95.925781 185.261719 95.425781 185.261719 C 95.925781 185.261719 96.316406 185.285156 96.617188 185.316406 C 96.875 185.34375 97.09375 185.449219 97.277344 185.632812 C 97.460938 185.816406 97.566406 186.039062 97.597656 186.296875 C 97.628906 186.597656 97.652344 186.988281 97.652344 187.488281 C 97.652344 186.988281 97.671875 186.597656 97.703125 186.296875 C 97.734375 186.039062 97.839844 185.816406 98.023438 185.632812 C 98.207031 185.449219 98.425781 185.34375 98.6875 185.316406 C 98.988281 185.285156 99.375 185.261719 99.878906 185.261719 C 99.375 185.261719 98.988281 185.242188 98.6875 185.207031 C 98.425781 185.179688 98.207031 185.074219 98.023438 184.890625 C 97.839844 184.707031 97.734375 184.484375 97.703125 184.226562 C 97.671875 183.925781 97.652344 183.539062 97.652344 183.035156 Z M 97.652344 183.035156 " fill-opacity="1" fill-rule="nonzero"/></g></svg>