<svg xmlns="http://www.w3.org/2000/svg" xmlns:xlink="http://www.w3.org/1999/xlink" width="500" zoomAndPan="magnify" viewBox="0 0 375 374.999991" height="500" preserveAspectRatio="xMidYMid meet" version="1.0"><defs><clipPath id="a64bd2d6a4"><path d="M 21 0 L 354 0 L 354 372.769531 L 21 372.769531 Z M 21 0 " clip-rule="nonzero"/></clipPath><clipPath id="b538c1d2d4"><path d="M 95.425781 183.035156 L 99.925781 183.035156 L 99.925781 187.535156 L 95.425781 187.535156 Z M 95.425781 183.035156 " clip-rule="nonzero"/></clipPath></defs><g clip-path="url(#a64bd2d6a4)"><path fill="#ffffff" d="M 187.351562 -2.230469 C 151.042969 -2.230469 134.078125 81.101562 130.507812 152.53125 C 119.792969 159.671875 109.078125 166.8125 99.257812 173.957031 C 51.339844 136.160156 35.863281 108.480469 40.328125 100.445312 C 43.003906 95.980469 58.777344 90.925781 100.144531 102.828125 C 104.910156 104.316406 109.972656 101.640625 111.160156 96.878906 C 112.648438 92.117188 109.972656 87.050781 105.210938 85.863281 C 62.054688 73.363281 34.375 75.148438 24.851562 91.519531 C 9.375 118.601562 56.101562 162.351562 84.671875 185.269531 C 40.625 220.683594 12.351562 256.992188 24.851562 279.019531 C 30.210938 288.242188 41.519531 293.003906 57.886719 293.003906 C 70.683594 293.003906 86.460938 290.328125 104.914062 284.671875 C 109.675781 283.1875 112.351562 278.421875 110.867188 273.660156 C 109.378906 268.894531 104.613281 266.21875 99.851562 267.707031 C 58.480469 279.910156 42.707031 274.554688 40.03125 270.089844 C 37.648438 265.921875 40.328125 251.339844 66.816406 224.851562 C 90.921875 200.449219 126.632812 174.257812 167.109375 150.746094 C 207.585938 127.234375 248.363281 109.671875 281.398438 100.742188 C 317.707031 91.21875 331.394531 95.984375 333.777344 100.148438 C 338.242188 108.1875 322.769531 135.863281 274.851562 173.660156 C 262.351562 164.433594 249.257812 155.503906 235.867188 147.171875 C 231.699219 144.492188 226.039062 145.683594 223.660156 150.144531 C 220.980469 154.3125 222.171875 159.972656 226.632812 162.351562 C 306.992188 212.652344 341.222656 257.886719 334.078125 269.792969 C 328.722656 279.019531 284.972656 278.71875 206.398438 240.328125 C 209.671875 238.542969 212.648438 236.753906 215.921875 234.96875 C 227.527344 228.121094 239.136719 220.980469 250.148438 213.839844 C 254.3125 211.160156 255.507812 205.507812 252.53125 201.339844 C 249.554688 197.171875 244.195312 195.980469 240.027344 198.957031 C 229.3125 206.101562 218.304688 212.945312 206.695312 219.492188 C 198.660156 223.957031 190.625 228.421875 182.589844 232.589844 C 178.125 234.972656 176.636719 240.328125 178.71875 244.496094 C 179.3125 245.6875 180.210938 246.578125 181.101562 247.175781 C 181.398438 247.472656 181.699219 247.765625 182.292969 248.0625 L 182.589844 248.359375 C 220.089844 268.003906 256.992188 282.292969 285.863281 288.839844 C 297.46875 291.519531 307.589844 292.707031 316.222656 292.707031 C 332.589844 292.707031 343.601562 287.949219 348.960938 278.722656 C 362.652344 256.699219 333.480469 220.089844 290.03125 185.269531 C 318.898438 162.054688 365.625 118.601562 349.851562 91.519531 C 330.800781 58.78125 239.4375 88.835938 158.78125 135.265625 C 155.507812 137.050781 152.527344 138.839844 149.253906 140.921875 C 154.910156 59.96875 174.851562 15.625 187.351562 15.625 C 192.410156 15.625 204.914062 26.640625 215.03125 68.601562 C 216.222656 73.367188 220.984375 76.339844 225.746094 75.148438 C 230.507812 73.957031 233.480469 69.199219 232.289062 64.4375 C 221.875 20.6875 206.101562 -2.230469 187.351562 -2.230469 Z M 138.835938 203.71875 C 133.777344 204.015625 130.210938 208.1875 130.210938 212.949219 C 131.996094 255.507812 137.949219 294.496094 146.875 323.066406 C 157.292969 356.101562 170.980469 372.769531 187.351562 372.769531 C 206.101562 372.769531 221.875 349.851562 232.289062 306.101562 C 233.480469 301.339844 230.507812 296.578125 225.746094 295.386719 C 220.984375 294.195312 216.222656 297.171875 215.03125 301.933594 C 204.914062 343.894531 192.410156 354.910156 187.351562 354.910156 C 173.660156 354.910156 151.9375 304.015625 148.066406 212.351562 C 147.769531 207.289062 143.597656 203.71875 138.835938 203.71875 Z M 138.835938 203.71875 " fill-opacity="1" fill-rule="nonzero"/></g><g clip-path="url(#b538c1d2d4)"><path fill="#ffffff" d="M 97.652344 184.398438 C 97.765625 184.859375 98.054688 185.148438 98.515625 185.261719 C 98.054688 185.378906 97.765625 185.667969 97.652344 186.128906 C 97.535156 185.667969 97.246094 185.378906 96.785156 185.261719 C 97.246094 185.148438 97.535156 184.859375 97.652344 184.398438 M 97.652344 183.035156 C 97.652344 183.539062 97.628906 183.925781 97.597656 184.226562 C 97.566406 184.484375 97.460938 184.707031 97.277344 184.890625 C 97.09375 185.074219 96.875 185.179688 96.617188 185.207031 C 96.316406 185.242188 95.925781 185.261719 95.425781 185.261719 C 95.925781 185.261719 96.316406 185.285156 96.617188 185.316406 C 96.875 185.34375 97.09375 185.449219 97.277344 185.632812 C 97.460938 185.816406 97.566406 186.039062 97.597656 186.296875 C 97.628906 186.597656 97.652344 186.988281 97.652344 187.488281 C 97.652344 186.988281 97.671875 186.597656 97.703125 186.296875 C 97.734375 186.039062 97.839844 185.816406 98.023438 185.632812 C 98.207031 185.449219 98.425781 185.34375 98.6875 185.316406 C 98.988281 185.285156 99.375 185.261719 99.878906 185.261719 C 99.375 185.261719 98.988281 185.242188 98.6875 185.207031 C 98.425781 185.179688 98.207031 185.074219 98.023438 184.890625 C 97.839844 184.707031 97.734375 184.484375 97.703125 184.226562 C 97.671875 183.925781 97.652344 183.539062 97.652344 183.035156 Z M 97.652344 183.035156 " fill-opacity="1" fill-rule="nonzero"/></g></svg>