<svg xmlns="http://www.w3.org/2000/svg" xmlns:xlink="http://www.w3.org/1999/xlink" width="500" zoomAndPan="magnify" viewBox="0 0 375 374.999991" height="500" preserveAspectRatio="xMidYMid meet" version="1.0"><defs><clipPath id="f4dc4f9161"><path d="M 95.425781 183.035156 L 99.925781 183.035156 L 99.925781 187.535156 L 95.425781 187.535156 Z M 95.425781 183.035156 " clip-rule="nonzero"/></clipPath></defs><path fill="#ffffff" d="M 187.351562 0 C 151.042969 0 134.078125 83.332031 130.507812 154.761719 C 119.792969 161.90625 109.078125 169.046875 99.257812 176.1875 C 51.339844 138.390625 35.863281 110.714844 40.328125 102.679688 C 43.003906 98.214844 58.777344 93.15625 100.144531 105.0625 C 104.910156 106.550781 109.972656 103.871094 111.160156 99.109375 C 112.648438 94.347656 109.972656 89.285156 105.210938 88.09375 C 62.054688 75.59375 34.375 77.382812 24.851562 93.75 C 9.375 120.832031 56.101562 164.582031 84.671875 187.5 C 40.625 222.917969 12.351562 259.226562 24.851562 281.25 C 30.210938 290.476562 41.519531 295.234375 57.886719 295.234375 C 70.683594 295.234375 86.460938 292.5625 104.914062 286.90625 C 109.675781 285.417969 112.351562 280.652344 110.867188 275.890625 C 109.378906 271.128906 104.613281 268.449219 99.851562 269.9375 C 58.480469 282.140625 42.707031 276.785156 40.03125 272.320312 C 37.648438 268.15625 40.328125 253.574219 66.816406 227.085938 C 90.921875 202.679688 126.632812 176.488281 167.109375 152.976562 C 207.585938 129.464844 248.363281 111.902344 281.398438 102.976562 C 317.707031 93.453125 331.394531 98.214844 333.777344 102.382812 C 338.242188 110.417969 322.769531 138.09375 274.851562 175.890625 C 262.351562 166.664062 249.257812 157.734375 235.867188 149.402344 C 231.699219 146.722656 226.039062 147.914062 223.660156 152.378906 C 220.980469 156.546875 222.171875 162.203125 226.632812 164.585938 C 306.992188 214.882812 341.222656 260.121094 334.078125 272.023438 C 328.722656 281.25 284.972656 280.953125 206.398438 242.558594 C 209.671875 240.773438 212.648438 238.984375 215.921875 237.199219 C 227.527344 230.355469 239.136719 223.214844 250.148438 216.070312 C 254.3125 213.390625 255.507812 207.738281 252.53125 203.574219 C 249.554688 199.40625 244.195312 198.214844 240.027344 201.1875 C 229.3125 208.332031 218.304688 215.179688 206.695312 221.726562 C 198.660156 226.191406 190.625 230.65625 182.589844 234.824219 C 178.125 237.203125 176.636719 242.5625 178.71875 246.726562 C 179.3125 247.917969 180.210938 248.8125 181.101562 249.40625 C 181.398438 249.703125 181.699219 250 182.292969 250.296875 L 182.589844 250.59375 C 220.089844 270.234375 256.992188 284.527344 285.863281 291.074219 C 297.46875 293.753906 307.589844 294.9375 316.222656 294.9375 C 332.589844 294.9375 343.601562 290.179688 348.960938 280.953125 C 362.652344 258.929688 333.480469 222.320312 290.03125 187.5 C 318.898438 164.285156 365.625 120.832031 349.851562 93.75 C 330.800781 61.011719 239.4375 91.070312 158.78125 137.496094 C 155.507812 139.285156 152.527344 141.070312 149.253906 143.152344 C 154.910156 62.203125 174.851562 17.855469 187.351562 17.855469 C 192.410156 17.855469 204.914062 28.871094 215.03125 70.835938 C 216.222656 75.597656 220.984375 78.570312 225.746094 77.382812 C 230.507812 76.191406 233.480469 71.429688 232.289062 66.667969 C 221.875 22.917969 206.101562 0 187.351562 0 Z M 138.835938 205.949219 C 133.777344 206.246094 130.210938 210.417969 130.210938 215.179688 C 131.996094 257.742188 137.949219 296.726562 146.875 325.300781 C 157.292969 358.335938 170.980469 375 187.351562 375 C 206.101562 375 221.875 352.082031 232.289062 308.332031 C 233.480469 303.570312 230.507812 298.808594 225.746094 297.617188 C 220.984375 296.429688 216.222656 299.402344 215.03125 304.164062 C 204.914062 346.128906 192.410156 357.144531 187.351562 357.144531 C 173.660156 357.144531 151.9375 306.25 148.066406 214.582031 C 147.769531 209.523438 143.597656 205.949219 138.835938 205.949219 Z M 138.835938 205.949219 " fill-opacity="1" fill-rule="nonzero"/><g clip-path="url(#f4dc4f9161)"><path fill="#ffffff" d="M 97.652344 184.398438 C 97.765625 184.859375 98.054688 185.148438 98.515625 185.261719 C 98.054688 185.378906 97.765625 185.667969 97.652344 186.128906 C 97.535156 185.667969 97.246094 185.378906 96.785156 185.261719 C 97.246094 185.148438 97.535156 184.859375 97.652344 184.398438 M 97.652344 183.035156 C 97.652344 183.539062 97.628906 183.925781 97.597656 184.226562 C 97.566406 184.484375 97.460938 184.707031 97.277344 184.890625 C 97.09375 185.074219 96.875 185.179688 96.617188 185.207031 C 96.316406 185.242188 95.925781 185.261719 95.425781 185.261719 C 95.925781 185.261719 96.316406 185.285156 96.617188 185.316406 C 96.875 185.34375 97.09375 185.449219 97.277344 185.632812 C 97.460938 185.816406 97.566406 186.039062 97.597656 186.296875 C 97.628906 186.597656 97.652344 186.988281 97.652344 187.488281 C 97.652344 186.988281 97.671875 186.597656 97.703125 186.296875 C 97.734375 186.039062 97.839844 185.816406 98.023438 185.632812 C 98.207031 185.449219 98.425781 185.34375 98.6875 185.316406 C 98.988281 185.285156 99.375 185.261719 99.878906 185.261719 C 99.375 185.261719 98.988281 185.242188 98.6875 185.207031 C 98.425781 185.179688 98.207031 185.074219 98.023438 184.890625 C 97.839844 184.707031 97.734375 184.484375 97.703125 184.226562 C 97.671875 183.925781 97.652344 183.539062 97.652344 183.035156 Z M 97.652344 183.035156 " fill-opacity="1" fill-rule="nonzero"/></g></svg>